<?xml version="1.0" encoding="UTF-8"?>
<svg width="24px" height="24px" viewBox="0 0 24 24" version="1.1" xmlns="http://www.w3.org/2000/svg" xmlns:xlink="http://www.w3.org/1999/xlink">
    <title>编组8</title>
    <g id="页面-1" stroke="none" stroke-width="1" fill="none" fill-rule="evenodd">
        <g id="心历-/-实体" transform="translate(-331.000000, -184.000000)">
            <g id="Menu-/-AllList1-Copy" transform="translate(10.000000, 172.000000)">
                <g id="编组8" transform="translate(321.000000, 12.000000)">
                    <rect id="矩形" fill-opacity="0" fill="#D8D8D8" x="0" y="0" width="24" height="24"></rect>
                    <g id="Icon-/-more" transform="translate(6.000000, 10.000000)" fill="#C9C9C9">
                        <path d="M1.5,0 C2.32842712,-1.52179594e-16 3,0.671572875 3,1.5 C3,2.32842712 2.32842712,3 1.5,3 C0.671572875,3 1.01453063e-16,2.32842712 0,1.5 C-1.01453063e-16,0.671572875 0.671572875,1.52179594e-16 1.5,0 Z M6.5,0 C7.32842712,-1.52179594e-16 8,0.671572875 8,1.5 C8,2.32842712 7.32842712,3 6.5,3 C5.67157288,3 5,2.32842712 5,1.5 C5,0.671572875 5.67157288,1.52179594e-16 6.5,0 Z M11.5,0 C12.3284271,-1.52179594e-16 13,0.671572875 13,1.5 C13,2.32842712 12.3284271,3 11.5,3 C10.6715729,3 10,2.32842712 10,1.5 C10,0.671572875 10.6715729,1.52179594e-16 11.5,0 Z" id="Combined-Shape"></path>
                    </g>
                </g>
            </g>
        </g>
    </g>
</svg>