<?xml version="1.0" encoding="UTF-8"?>
<svg width="24px" height="24px" viewBox="0 0 24 24" version="1.1" xmlns="http://www.w3.org/2000/svg" xmlns:xlink="http://www.w3.org/1999/xlink">
    <title>icon/Latest@1x</title>
    <g id="页面-1" stroke="none" stroke-width="1" fill="none" fill-rule="evenodd">
        <g id="首页备份-3" transform="translate(-331.000000, -100.000000)">
            <g id="icon/Latest" transform="translate(331.000000, 100.000000)">
                <polygon id="footprint" fill-opacity="0" fill="#FFCF57" points="24 0 24 24 0 24 0 0"></polygon>
                <g transform="translate(3.958333, 4.458333)" fill="#4D4D4D" id="Shape">
                    <path d="M0,8 C0,3.58147368 3.58147368,0 8,0 C10.5692632,0 12.8522105,1.21431579 14.3157895,3.09726316 L14.3157895,1.47368421 C14.3157895,1.12505263 14.5987368,0.842105263 14.9473684,0.842105263 C15.296,0.842105263 15.5789474,1.12505263 15.5789474,1.47368421 L15.5789474,4.84210526 C15.5789474,5.19073684 15.296,5.47368421 14.9473684,5.47368421 L11.5789474,5.47368421 C11.2303158,5.47368421 10.9473684,5.19073684 10.9473684,4.84210526 C10.9473684,4.49347368 11.2303158,4.21052632 11.5789474,4.21052632 L13.552,4.21052632 C12.3385263,2.43621053 10.3115789,1.26315789 8,1.26315789 C4.27957895,1.26315789 1.26315789,4.27957895 1.26315789,8 C1.26315789,11.7204211 4.27957895,14.7368421 8,14.7368421 C11.7204211,14.7368421 14.7368421,11.7204211 14.7368421,8 L14.7368421,8 C14.7368421,7.65136842 15.0197895,7.36842105 15.3684211,7.36842105 C15.7170526,7.36842105 16,7.65136842 16,8 L16,8 C16,12.4185263 12.4185263,16 8,16 C3.58147368,16 0,12.4185263 0,8 L0,8 Z"></path>
                </g>
            </g>
        </g>
    </g>
</svg>